<svg width="26" height="25" viewBox="0 0 26 25" fill="none" xmlns="http://www.w3.org/2000/svg">
    <path d="M10.1836 24.4199C10.9948 24.4199 11.6191 24.0872 12.0566 23.4219L24.8535 3.625C25.0085 3.38802 25.1224 3.16016 25.1953 2.94141C25.2682 2.72266 25.3047 2.50391 25.3047 2.28516C25.3047 1.7474 25.127 1.30534 24.7715 0.958984C24.416 0.61263 23.9603 0.439453 23.4043 0.439453C23.0215 0.439453 22.7025 0.516927 22.4473 0.671875C22.1921 0.817708 21.946 1.07292 21.709 1.4375L10.1289 19.7852L4.19531 12.2656C3.76693 11.7279 3.23828 11.459 2.60938 11.459C2.05339 11.459 1.5931 11.6367 1.22852 11.9922C0.863932 12.3477 0.681641 12.7988 0.681641 13.3457C0.681641 13.5918 0.722656 13.8288 0.804688 14.0566C0.895833 14.2845 1.04167 14.5169 1.24219 14.7539L8.32422 23.4766C8.83464 24.1055 9.45443 24.4199 10.1836 24.4199Z"
          fill="white"/>
    <path d="M12.0566 23.4219L12.4744 23.6966L12.4766 23.6933L12.0566 23.4219ZM24.8535 3.625L24.435 3.35137L24.4336 3.35357L24.8535 3.625ZM25.1953 2.94141L24.721 2.78329L25.1953 2.94141ZM22.4473 0.671875L22.6954 1.10615L22.7068 1.09927L22.4473 0.671875ZM21.709 1.4375L21.2897 1.16498L21.2862 1.17063L21.709 1.4375ZM10.1289 19.7852L9.73639 20.0949L10.1744 20.6499L10.5517 20.052L10.1289 19.7852ZM4.19531 12.2656L4.58783 11.9559L4.58639 11.9541L4.19531 12.2656ZM1.22852 11.9922L0.879466 11.6342L1.22852 11.9922ZM0.804688 14.0566L0.334244 14.226L0.337204 14.2342L0.340449 14.2423L0.804688 14.0566ZM1.24219 14.7539L1.63044 14.4387L1.62388 14.4309L1.24219 14.7539ZM8.32422 23.4766L8.71245 23.1615L8.71239 23.1614L8.32422 23.4766ZM10.1836 24.9199C11.1593 24.9199 11.9424 24.5057 12.4744 23.6966L11.6389 23.1472C11.2959 23.6688 10.8303 23.9199 10.1836 23.9199V24.9199ZM12.4766 23.6933L25.2734 3.89643L24.4336 3.35357L11.6367 23.1504L12.4766 23.6933ZM25.272 3.89862C25.4453 3.63353 25.5805 3.36702 25.6697 3.09952L24.721 2.78329C24.6643 2.95329 24.5716 3.14251 24.435 3.35138L25.272 3.89862ZM25.6697 3.09952C25.7586 2.83256 25.8047 2.5605 25.8047 2.28516H24.8047C24.8047 2.44732 24.7778 2.61275 24.721 2.78329L25.6697 3.09952ZM25.8047 2.28516C25.8047 1.62502 25.5811 1.0497 25.1204 0.60087L24.4226 1.3171C24.6728 1.56097 24.8047 1.86978 24.8047 2.28516H25.8047ZM25.1204 0.60087C24.66 0.15229 24.0736 -0.0605469 23.4043 -0.0605469V0.939453C23.847 0.939453 24.172 1.07297 24.4226 1.3171L25.1204 0.60087ZM23.4043 -0.0605469C22.9554 -0.0605469 22.5404 0.0303867 22.1878 0.244481L22.7068 1.09927C22.8645 1.00347 23.0876 0.939453 23.4043 0.939453V-0.0605469ZM22.1992 0.237753C21.8497 0.437455 21.5509 0.763195 21.2898 1.16501L22.1282 1.70999C22.341 1.38264 22.5344 1.19796 22.6953 1.106L22.1992 0.237753ZM21.2862 1.17063L9.70608 19.5183L10.5517 20.052L22.1318 1.70437L21.2862 1.17063ZM10.5214 19.4754L4.58783 11.9559L3.8028 12.5754L9.73639 20.0949L10.5214 19.4754ZM4.58639 11.9541C4.07325 11.3099 3.40606 10.959 2.60938 10.959V11.959C3.0705 11.959 3.4606 12.1458 3.80423 12.5772L4.58639 11.9541ZM2.60938 10.959C1.93611 10.959 1.34643 11.1789 0.879466 11.6342L1.57757 12.3502C1.83976 12.0945 2.17066 11.959 2.60938 11.959V10.959ZM0.879466 11.6342C0.41071 12.0912 0.181641 12.6751 0.181641 13.3457H1.18164C1.18164 12.9226 1.31715 12.6041 1.57757 12.3502L0.879466 11.6342ZM0.181641 13.3457C0.181641 13.6486 0.232337 13.9429 0.334244 14.226L1.27513 13.8873C1.21298 13.7146 1.18164 13.535 1.18164 13.3457H0.181641ZM0.340449 14.2423C0.456036 14.5313 0.634023 14.8092 0.860494 15.0769L1.62388 14.4309C1.44931 14.2246 1.33563 14.0377 1.26893 13.8709L0.340449 14.2423ZM0.854019 15.0691L7.93605 23.7917L8.71239 23.1614L1.63036 14.4387L0.854019 15.0691ZM7.93599 23.7916C8.52941 24.5228 9.28579 24.9199 10.1836 24.9199V23.9199C9.62306 23.9199 9.13986 23.6881 8.71245 23.1615L7.93599 23.7916Z"
          fill="white"/>
</svg>
