<svg width="20" height="17" viewBox="0 0 20 17" fill="none" xmlns="http://www.w3.org/2000/svg">
    <path d="M15.5013 1.52295L10.0585 6.19534L4.49121 1.52295V1.52421L4.49794 1.53053V8.07314L9.99568 12.8466L15.5013 8.25751V1.52295Z"
          fill="#EA4335"/>
    <path d="M16.9303 0.386383L15.501 1.52291V8.25747L19.9987 4.45894V2.17073C19.9987 2.17073 19.4528 -1.09742 16.9303 0.386383Z"
          fill="#FBBC05"/>
    <path d="M15.501 8.25751V16.9924H18.9483C18.9483 16.9924 19.9292 16.8812 19.9998 15.6513V4.45898L15.501 8.25751Z"
          fill="#34A853"/>
    <path d="M4.4981 17V8.07321L4.49121 8.06689L4.4981 17Z" fill="#C5221F"/>
    <path d="M4.49102 1.52355L3.0695 0.393333C0.547084 -1.09047 0 2.17642 0 2.17642V4.46463L4.49102 8.06616V1.52355Z"
          fill="#C5221F"/>
    <path d="M4.49121 1.52393V8.06654L4.4981 8.07285V1.53024L4.49121 1.52393Z" fill="#C5221F"/>
    <path d="M0 4.46631V15.6586C0.0695065 16.8898 1.05157 16.9997 1.05157 16.9997H4.49887L4.49102 8.06658L0 4.46631Z"
          fill="#4285F4"/>
</svg>
